<svg xmlns="http://www.w3.org/2000/svg" width="40" height="40" viewBox="0 0 40 40"><rect width="100%" height="100%" fill="#DDDDDD"/><path fill="#999999" d="M9.555 20.07h.9q.33 0 .58-.08t.41-.24q.17-.15.25-.38.08-.22.08-.49 0-.26-.08-.48-.08-.21-.24-.36-.17-.14-.41-.22-.25-.08-.59-.08h-.9zm-1.21-3.27h2.11q.65 0 1.13.16.48.15.79.42.31.28.46.66t.15.84q0 .47-.16.86-.15.4-.47.68-.31.28-.79.44-.47.16-1.11.16h-.9v2.29h-1.21zm6.5-.18v2.57q.27-.25.6-.41.32-.16.76-.16.38 0 .67.13t.49.36q.19.23.29.55.11.32.11.71v2.94h-1.12v-2.94q0-.42-.19-.65-.19-.24-.59-.24-.29 0-.54.14-.25.13-.48.35v3.34h-1.11v-6.69zm6.01 2q.51 0 .93.17.43.16.72.47.3.31.47.75.16.44.16.98 0 .55-.16.99-.17.44-.47.75-.29.31-.72.48-.42.17-.93.17-.52 0-.94-.17t-.72-.48-.47-.75q-.16-.44-.16-.99 0-.54.16-.98.17-.44.47-.75t.72-.47q.42-.17.94-.17m0 3.9q.58 0 .85-.38.28-.39.28-1.14t-.28-1.14q-.27-.39-.85-.39t-.87.4q-.28.39-.28 1.13t.28 1.13q.29.39.87.39m4.67.86q-.61 0-.93-.34t-.32-.94v-2.57h-.47q-.09 0-.15-.06-.07-.06-.07-.18v-.44l.75-.12.23-1.26q.02-.09.08-.14.07-.05.17-.05h.57v1.45h1.24v.8h-1.24v2.5q0 .21.11.33.1.13.29.13.1 0 .17-.03.07-.02.12-.05l.1-.05q.04-.03.08-.03.05 0 .08.03.03.02.07.07l.33.54q-.24.2-.56.31-.31.1-.65.1m3.85-4.76q.51 0 .93.17.42.16.72.47t.46.75q.17.44.17.98 0 .55-.17.99-.16.44-.46.75t-.72.48-.93.17q-.52 0-.94-.17t-.72-.48-.47-.75q-.16-.44-.16-.99 0-.54.16-.98.17-.44.47-.75t.72-.47q.42-.17.94-.17m0 3.9q.58 0 .85-.38.28-.39.28-1.14t-.28-1.14q-.27-.39-.85-.39-.59 0-.87.4-.28.39-.28 1.13t.28 1.13.87.39"/></svg>